{
	"asset":{
		"generator":"Khronos glTF Blender I/O v4.1.63",
		"version":"2.0"
	},
	"extensionsUsed":[
		"KHR_materials_clearcoat",
		"KHR_materials_specular",
		"KHR_materials_ior"
	],
	"scene":0,
	"scenes":[
		{
			"name":"Scene",
			"nodes":[
				0,
				1,
				2,
				3,
				4,
				5,
				6,
				7,
				8
			]
		}
	],
	"nodes":[
		{
			"mesh":0,
			"name":"Cylinder",
			"rotation":[
				0,
				0.9974340796470642,
				0,
				0.07159110903739929
			],
			"translation":[
				0,
				3.475856304168701,
				0
			]
		},
		{
			"mesh":1,
			"name":"Tower-head",
			"scale":[
				24.600000381469727,
				5,
				24.600000381469727
			],
			"translation":[
				0,
				72.14637756347656,
				0
			]
		},
		{
			"mesh":2,
			"name":"standard Floor",
			"rotation":[
				0,
				-0.9807853698730469,
				0,
				0.1950903683900833
			],
			"scale":[
				-1,
				-1,
				-1
			],
			"translation":[
				0,
				59.49386215209961,
				0
			]
		},
		{
			"name":"BezierCircle"
		},
		{
			"mesh":3,
			"name":"DB Keks",
			"rotation":[
				0.9238795638084412,
				0,
				0.3826834559440613,
				1.672762550697371e-08
			],
			"scale":[
				3.999999761581421,
				4,
				3.999999761581421
			]
		},
		{
			"mesh":4,
			"name":"Starship base",
			"rotation":[
				0,
				-0.3888501822948456,
				0,
				0.9213011264801025
			],
			"scale":[
				0.2800000011920929,
				0.5,
				0.2800000011920929
			],
			"translation":[
				0,
				-101.76371002197266,
				0
			]
		},
		{
			"mesh":5,
			"name":"Cube",
			"rotation":[
				0.20837751030921936,
				-0.2639789879322052,
				0.05852271616458893,
				0.9399303197860718
			],
			"scale":[
				1.4999998807907104,
				1.6666665077209473,
				1
			],
			"translation":[
				0.8732653856277466,
				-17.892921447753906,
				0.5219271183013916
			]
		},
		{
			"mesh":6,
			"name":"Cube.001",
			"rotation":[
				0,
				-0.968961238861084,
				0,
				0.24721267819404602
			],
			"translation":[
				0.8732649683952332,
				0,
				0.5219231843948364
			]
		},
		{
			"mesh":7,
			"name":"Cube.002",
			"rotation":[
				0.05350659787654877,
				-0.9459930658340454,
				0.20972158014774323,
				0.24135269224643707
			],
			"scale":[
				1.5000003576278687,
				1.6666666269302368,
				1
			],
			"translation":[
				26.501134872436523,
				75.33013916015625,
				47.477481842041016
			]
		}
	],
	"animations":[
		{
			"channels":[
				{
					"sampler":0,
					"target":{
						"node":0,
						"path":"translation"
					}
				},
				{
					"sampler":1,
					"target":{
						"node":0,
						"path":"rotation"
					}
				},
				{
					"sampler":2,
					"target":{
						"node":0,
						"path":"scale"
					}
				},
				{
					"sampler":3,
					"target":{
						"node":2,
						"path":"translation"
					}
				},
				{
					"sampler":4,
					"target":{
						"node":2,
						"path":"rotation"
					}
				},
				{
					"sampler":5,
					"target":{
						"node":2,
						"path":"scale"
					}
				},
				{
					"sampler":6,
					"target":{
						"node":6,
						"path":"translation"
					}
				},
				{
					"sampler":7,
					"target":{
						"node":6,
						"path":"rotation"
					}
				},
				{
					"sampler":8,
					"target":{
						"node":7,
						"path":"translation"
					}
				},
				{
					"sampler":9,
					"target":{
						"node":7,
						"path":"rotation"
					}
				},
				{
					"sampler":10,
					"target":{
						"node":8,
						"path":"translation"
					}
				},
				{
					"sampler":11,
					"target":{
						"node":8,
						"path":"rotation"
					}
				}
			],
			"name":"Animation",
			"samplers":[
				{
					"input":54,
					"interpolation":"STEP",
					"output":55
				},
				{
					"input":56,
					"interpolation":"LINEAR",
					"output":57
				},
				{
					"input":54,
					"interpolation":"STEP",
					"output":58
				},
				{
					"input":59,
					"interpolation":"LINEAR",
					"output":60
				},
				{
					"input":59,
					"interpolation":"LINEAR",
					"output":61
				},
				{
					"input":59,
					"interpolation":"LINEAR",
					"output":62
				},
				{
					"input":63,
					"interpolation":"LINEAR",
					"output":64
				},
				{
					"input":63,
					"interpolation":"LINEAR",
					"output":65
				},
				{
					"input":63,
					"interpolation":"LINEAR",
					"output":66
				},
				{
					"input":63,
					"interpolation":"LINEAR",
					"output":67
				},
				{
					"input":63,
					"interpolation":"LINEAR",
					"output":68
				},
				{
					"input":63,
					"interpolation":"LINEAR",
					"output":69
				}
			]
		}
	],
	"materials":[
		{
			"alphaMode":"BLEND",
			"doubleSided":true,
			"extensions":{
				"KHR_materials_clearcoat":{
					"clearcoatFactor":0.03740157186985016,
					"clearcoatRoughnessFactor":0.40007874369621277
				},
				"KHR_materials_specular":{
					"specularColorFactor":[
						1.6456692218780518,
						1.6456692218780518,
						1.6456692218780518
					]
				},
				"KHR_materials_ior":{
					"ior":4
				}
			},
			"name":"Aluminium 1",
			"pbrMetallicRoughness":{
				"baseColorTexture":{
					"index":0
				}
			}
		},
		{
			"alphaMode":"BLEND",
			"doubleSided":true,
			"name":"Glass Blue",
			"pbrMetallicRoughness":{
				"baseColorTexture":{
					"index":1
				},
				"metallicFactor":0,
				"roughnessFactor":0.5
			}
		},
		{
			"alphaMode":"BLEND",
			"doubleSided":true,
			"name":"DB Rot.002",
			"pbrMetallicRoughness":{
				"baseColorFactor":[
					0.8713562488555908,
					0,
					0,
					1
				],
				"metallicFactor":0,
				"roughnessFactor":0.5
			}
		},
		{
			"alphaMode":"BLEND",
			"doubleSided":true,
			"emissiveFactor":[
				0.800000011920929,
				0.800000011920929,
				0.800000011920929
			],
			"emissiveTexture":{
				"index":2
			},
			"name":"Glass Blue.003",
			"pbrMetallicRoughness":{
				"baseColorFactor":[
					0,
					0,
					0,
					1
				]
			}
		}
	],
	"meshes":[
		{
			"name":"Cylinder",
			"primitives":[
				{
					"attributes":{
						"POSITION":0,
						"NORMAL":1,
						"TEXCOORD_0":2
					},
					"indices":3,
					"material":0
				},
				{
					"attributes":{
						"POSITION":4,
						"NORMAL":5,
						"TEXCOORD_0":6
					},
					"indices":7,
					"material":1
				}
			]
		},
		{
			"name":"Cone",
			"primitives":[
				{
					"attributes":{
						"POSITION":8,
						"NORMAL":9,
						"TEXCOORD_0":10
					},
					"indices":11,
					"material":0
				},
				{
					"attributes":{
						"POSITION":12,
						"NORMAL":13,
						"TEXCOORD_0":14
					},
					"indices":15,
					"material":1
				}
			]
		},
		{
			"name":"Cylinder.001",
			"primitives":[
				{
					"attributes":{
						"POSITION":16,
						"NORMAL":17,
						"TEXCOORD_0":18
					},
					"indices":19,
					"material":1
				},
				{
					"attributes":{
						"POSITION":20,
						"NORMAL":21,
						"TEXCOORD_0":22
					},
					"indices":23,
					"material":0
				}
			]
		},
		{
			"name":"Cube.001",
			"primitives":[
				{
					"attributes":{
						"POSITION":24,
						"NORMAL":25,
						"TEXCOORD_0":26
					},
					"indices":27,
					"material":2
				}
			]
		},
		{
			"name":"Cylinder.006",
			"primitives":[
				{
					"attributes":{
						"POSITION":28,
						"NORMAL":29,
						"TEXCOORD_0":30
					},
					"indices":31,
					"material":0
				}
			]
		},
		{
			"name":"Cube",
			"primitives":[
				{
					"attributes":{
						"POSITION":32,
						"NORMAL":33,
						"TEXCOORD_0":34
					},
					"indices":35,
					"material":0
				},
				{
					"attributes":{
						"POSITION":36,
						"NORMAL":37,
						"TEXCOORD_0":38
					},
					"indices":39,
					"material":3
				}
			]
		},
		{
			"name":"Cube.002",
			"primitives":[
				{
					"attributes":{
						"POSITION":40,
						"NORMAL":41,
						"TEXCOORD_0":42
					},
					"indices":43,
					"material":0
				},
				{
					"attributes":{
						"POSITION":44,
						"NORMAL":45,
						"TEXCOORD_0":46
					},
					"indices":47,
					"material":3
				}
			]
		},
		{
			"name":"Cube.003",
			"primitives":[
				{
					"attributes":{
						"POSITION":48,
						"NORMAL":49,
						"TEXCOORD_0":50
					},
					"indices":35,
					"material":0
				},
				{
					"attributes":{
						"POSITION":51,
						"NORMAL":52,
						"TEXCOORD_0":53
					},
					"indices":39,
					"material":3
				}
			]
		}
	],
	"textures":[
		{
			"sampler":0,
			"source":0
		},
		{
			"sampler":1,
			"source":1
		},
		{
			"sampler":1,
			"source":2
		}
	],
	"images":[
		{
			"mimeType":"image/jpeg",
			"name":"grunge-wall-texture",
			"uri":"station/grunge-wall-texture.jpg"
		},
		{
			"mimeType":"image/jpeg",
			"name":"blue-shiny-textured-paper-background",
			"uri":"station/blue-shiny-textured-paper-background.jpg"
		},
		{
			"mimeType":"image/jpeg",
			"name":"solarpanels",
			"uri":"station/solarpanels.jpg"
		}
	],
	"accessors":[
		{
			"bufferView":0,
			"componentType":5126,
			"count":2850,
			"max":[
				84.21495819091797,
				3.1737754344940186,
				83.50479125976562
			],
			"min":[
				-82.7009506225586,
				-3.5743818283081055,
				-83.41111755371094
			],
			"type":"VEC3"
		},
		{
			"bufferView":1,
			"componentType":5126,
			"count":2850,
			"type":"VEC3"
		},
		{
			"bufferView":2,
			"componentType":5126,
			"count":2850,
			"type":"VEC2"
		},
		{
			"bufferView":3,
			"componentType":5123,
			"count":8580,
			"type":"SCALAR"
		},
		{
			"bufferView":4,
			"componentType":5126,
			"count":196,
			"max":[
				84.21495819091797,
				1.4704735279083252,
				83.50479125976562
			],
			"min":[
				-82.7009506225586,
				-1.8698643445968628,
				-83.41111755371094
			],
			"type":"VEC3"
		},
		{
			"bufferView":5,
			"componentType":5126,
			"count":196,
			"type":"VEC3"
		},
		{
			"bufferView":6,
			"componentType":5126,
			"count":196,
			"type":"VEC2"
		},
		{
			"bufferView":7,
			"componentType":5123,
			"count":576,
			"type":"SCALAR"
		},
		{
			"bufferView":8,
			"componentType":5126,
			"count":1084,
			"max":[
				1.0558973550796509,
				3.4200994968414307,
				1.0558973550796509
			],
			"min":[
				-1.0558973550796509,
				-2.799999952316284,
				-1.0558973550796509
			],
			"type":"VEC3"
		},
		{
			"bufferView":9,
			"componentType":5126,
			"count":1084,
			"type":"VEC3"
		},
		{
			"bufferView":10,
			"componentType":5126,
			"count":1084,
			"type":"VEC2"
		},
		{
			"bufferView":11,
			"componentType":5123,
			"count":3270,
			"type":"SCALAR"
		},
		{
			"bufferView":12,
			"componentType":5126,
			"count":32,
			"max":[
				0.46854010224342346,
				2.178499698638916,
				0.46854010224342346
			],
			"min":[
				-0.46854010224342346,
				0.3043392598628998,
				-0.46854010224342346
			],
			"type":"VEC3"
		},
		{
			"bufferView":13,
			"componentType":5126,
			"count":32,
			"type":"VEC3"
		},
		{
			"bufferView":14,
			"componentType":5126,
			"count":32,
			"type":"VEC2"
		},
		{
			"bufferView":15,
			"componentType":5123,
			"count":72,
			"type":"SCALAR"
		},
		{
			"bufferView":16,
			"componentType":5126,
			"count":34432,
			"max":[
				24.555294036865234,
				125.49700164794922,
				24.555294036865234
			],
			"min":[
				-24.555294036865234,
				-1.496999979019165,
				-24.555294036865234
			],
			"type":"VEC3"
		},
		{
			"bufferView":17,
			"componentType":5126,
			"count":34432,
			"type":"VEC3"
		},
		{
			"bufferView":18,
			"componentType":5126,
			"count":34432,
			"type":"VEC2"
		},
		{
			"bufferView":19,
			"componentType":5123,
			"count":114720,
			"type":"SCALAR"
		},
		{
			"bufferView":20,
			"componentType":5126,
			"count":51584,
			"max":[
				24.600000381469727,
				126,
				24.600000381469727
			],
			"min":[
				-24.600000381469727,
				-2,
				-24.600000381469727
			],
			"type":"VEC3"
		},
		{
			"bufferView":21,
			"componentType":5126,
			"count":51584,
			"type":"VEC3"
		},
		{
			"bufferView":22,
			"componentType":5126,
			"count":51584,
			"type":"VEC2"
		},
		{
			"bufferView":23,
			"componentType":5123,
			"count":149088,
			"type":"SCALAR"
		},
		{
			"bufferView":24,
			"componentType":5126,
			"count":3484,
			"max":[
				3.651254892349243,
				-6.024016380310059,
				6.352682113647461
			],
			"min":[
				-3.4556808471679688,
				-10.75861930847168,
				4.929694175720215
			],
			"type":"VEC3"
		},
		{
			"bufferView":25,
			"componentType":5126,
			"count":3484,
			"type":"VEC3"
		},
		{
			"bufferView":26,
			"componentType":5126,
			"count":3484,
			"type":"VEC2"
		},
		{
			"bufferView":27,
			"componentType":5123,
			"count":6879,
			"type":"SCALAR"
		},
		{
			"bufferView":28,
			"componentType":5126,
			"count":2034,
			"max":[
				173.0657958984375,
				88.52742004394531,
				173.0657958984375
			],
			"min":[
				-173.0657958984375,
				-65.96559143066406,
				-173.0657958984375
			],
			"type":"VEC3"
		},
		{
			"bufferView":29,
			"componentType":5126,
			"count":2034,
			"type":"VEC3"
		},
		{
			"bufferView":30,
			"componentType":5126,
			"count":2034,
			"type":"VEC2"
		},
		{
			"bufferView":31,
			"componentType":5123,
			"count":5964,
			"type":"SCALAR"
		},
		{
			"bufferView":32,
			"componentType":5126,
			"count":511,
			"max":[
				5,
				44.41012191772461,
				-79.24785614013672
			],
			"min":[
				-5,
				29.41012191772461,
				-88.49785614013672
			],
			"type":"VEC3"
		},
		{
			"bufferView":33,
			"componentType":5126,
			"count":511,
			"type":"VEC3"
		},
		{
			"bufferView":34,
			"componentType":5126,
			"count":511,
			"type":"VEC2"
		},
		{
			"bufferView":35,
			"componentType":5123,
			"count":1506,
			"type":"SCALAR"
		},
		{
			"bufferView":36,
			"componentType":5126,
			"count":225,
			"max":[
				4.375,
				43.47262191772461,
				-88.1978530883789
			],
			"min":[
				-4.375,
				30.34762191772461,
				-88.1978530883789
			],
			"type":"VEC3"
		},
		{
			"bufferView":37,
			"componentType":5126,
			"count":225,
			"type":"VEC3"
		},
		{
			"bufferView":38,
			"componentType":5126,
			"count":225,
			"type":"VEC2"
		},
		{
			"bufferView":39,
			"componentType":5123,
			"count":1176,
			"type":"SCALAR"
		},
		{
			"bufferView":40,
			"componentType":5126,
			"count":540,
			"max":[
				55.04459762573242,
				86.87026977539062,
				36.11012649536133
			],
			"min":[
				34.67787170410156,
				63.789955139160156,
				17.383867263793945
			],
			"type":"VEC3"
		},
		{
			"bufferView":41,
			"componentType":5126,
			"count":540,
			"type":"VEC3"
		},
		{
			"bufferView":42,
			"componentType":5126,
			"count":540,
			"type":"VEC2"
		},
		{
			"bufferView":43,
			"componentType":5123,
			"count":1506,
			"type":"SCALAR"
		},
		{
			"bufferView":44,
			"componentType":5126,
			"count":241,
			"max":[
				53.76851272583008,
				85.3273696899414,
				34.83211135864258
			],
			"min":[
				39.19980239868164,
				65.50189208984375,
				18.8431396484375
			],
			"type":"VEC3"
		},
		{
			"bufferView":45,
			"componentType":5126,
			"count":241,
			"type":"VEC3"
		},
		{
			"bufferView":46,
			"componentType":5126,
			"count":241,
			"type":"VEC2"
		},
		{
			"bufferView":47,
			"componentType":5123,
			"count":1176,
			"type":"SCALAR"
		},
		{
			"bufferView":48,
			"componentType":5126,
			"count":511,
			"max":[
				5,
				7.5,
				8.75
			],
			"min":[
				-5,
				-7.5,
				-0.5
			],
			"type":"VEC3"
		},
		{
			"bufferView":49,
			"componentType":5126,
			"count":511,
			"type":"VEC3"
		},
		{
			"bufferView":50,
			"componentType":5126,
			"count":511,
			"type":"VEC2"
		},
		{
			"bufferView":51,
			"componentType":5126,
			"count":225,
			"max":[
				4.375,
				6.5625,
				-0.19999998807907104
			],
			"min":[
				-4.375,
				-6.5625,
				-0.19999998807907104
			],
			"type":"VEC3"
		},
		{
			"bufferView":52,
			"componentType":5126,
			"count":225,
			"type":"VEC3"
		},
		{
			"bufferView":53,
			"componentType":5126,
			"count":225,
			"type":"VEC2"
		},
		{
			"bufferView":54,
			"componentType":5126,
			"count":2,
			"max":[
				15.5
			],
			"min":[
				0
			],
			"type":"SCALAR"
		},
		{
			"bufferView":55,
			"componentType":5126,
			"count":2,
			"type":"VEC3"
		},
		{
			"bufferView":56,
			"componentType":5126,
			"count":373,
			"max":[
				15.5
			],
			"min":[
				0
			],
			"type":"SCALAR"
		},
		{
			"bufferView":57,
			"componentType":5126,
			"count":373,
			"type":"VEC4"
		},
		{
			"bufferView":58,
			"componentType":5126,
			"count":2,
			"type":"VEC3"
		},
		{
			"bufferView":59,
			"componentType":5126,
			"count":1,
			"max":[
				3.2083333333333335
			],
			"min":[
				3.2083333333333335
			],
			"type":"SCALAR"
		},
		{
			"bufferView":60,
			"componentType":5126,
			"count":1,
			"type":"VEC3"
		},
		{
			"bufferView":61,
			"componentType":5126,
			"count":1,
			"type":"VEC4"
		},
		{
			"bufferView":62,
			"componentType":5126,
			"count":1,
			"type":"VEC3"
		},
		{
			"bufferView":63,
			"componentType":5126,
			"count":285,
			"max":[
				14.875
			],
			"min":[
				3.0416666666666665
			],
			"type":"SCALAR"
		},
		{
			"bufferView":64,
			"componentType":5126,
			"count":285,
			"type":"VEC3"
		},
		{
			"bufferView":65,
			"componentType":5126,
			"count":285,
			"type":"VEC4"
		},
		{
			"bufferView":66,
			"componentType":5126,
			"count":285,
			"type":"VEC3"
		},
		{
			"bufferView":67,
			"componentType":5126,
			"count":285,
			"type":"VEC4"
		},
		{
			"bufferView":68,
			"componentType":5126,
			"count":285,
			"type":"VEC3"
		},
		{
			"bufferView":69,
			"componentType":5126,
			"count":285,
			"type":"VEC4"
		}
	],
	"bufferViews":[
		{
			"buffer":0,
			"byteLength":34200,
			"byteOffset":0,
			"target":34962
		},
		{
			"buffer":0,
			"byteLength":34200,
			"byteOffset":34200,
			"target":34962
		},
		{
			"buffer":0,
			"byteLength":22800,
			"byteOffset":68400,
			"target":34962
		},
		{
			"buffer":0,
			"byteLength":17160,
			"byteOffset":91200,
			"target":34963
		},
		{
			"buffer":0,
			"byteLength":2352,
			"byteOffset":108360,
			"target":34962
		},
		{
			"buffer":0,
			"byteLength":2352,
			"byteOffset":110712,
			"target":34962
		},
		{
			"buffer":0,
			"byteLength":1568,
			"byteOffset":113064,
			"target":34962
		},
		{
			"buffer":0,
			"byteLength":1152,
			"byteOffset":114632,
			"target":34963
		},
		{
			"buffer":0,
			"byteLength":13008,
			"byteOffset":115784,
			"target":34962
		},
		{
			"buffer":0,
			"byteLength":13008,
			"byteOffset":128792,
			"target":34962
		},
		{
			"buffer":0,
			"byteLength":8672,
			"byteOffset":141800,
			"target":34962
		},
		{
			"buffer":0,
			"byteLength":6540,
			"byteOffset":150472,
			"target":34963
		},
		{
			"buffer":0,
			"byteLength":384,
			"byteOffset":157012,
			"target":34962
		},
		{
			"buffer":0,
			"byteLength":384,
			"byteOffset":157396,
			"target":34962
		},
		{
			"buffer":0,
			"byteLength":256,
			"byteOffset":157780,
			"target":34962
		},
		{
			"buffer":0,
			"byteLength":144,
			"byteOffset":158036,
			"target":34963
		},
		{
			"buffer":0,
			"byteLength":413184,
			"byteOffset":158180,
			"target":34962
		},
		{
			"buffer":0,
			"byteLength":413184,
			"byteOffset":571364,
			"target":34962
		},
		{
			"buffer":0,
			"byteLength":275456,
			"byteOffset":984548,
			"target":34962
		},
		{
			"buffer":0,
			"byteLength":229440,
			"byteOffset":1260004,
			"target":34963
		},
		{
			"buffer":0,
			"byteLength":619008,
			"byteOffset":1489444,
			"target":34962
		},
		{
			"buffer":0,
			"byteLength":619008,
			"byteOffset":2108452,
			"target":34962
		},
		{
			"buffer":0,
			"byteLength":412672,
			"byteOffset":2727460,
			"target":34962
		},
		{
			"buffer":0,
			"byteLength":298176,
			"byteOffset":3140132,
			"target":34963
		},
		{
			"buffer":0,
			"byteLength":41808,
			"byteOffset":3438308,
			"target":34962
		},
		{
			"buffer":0,
			"byteLength":41808,
			"byteOffset":3480116,
			"target":34962
		},
		{
			"buffer":0,
			"byteLength":27872,
			"byteOffset":3521924,
			"target":34962
		},
		{
			"buffer":0,
			"byteLength":13758,
			"byteOffset":3549796,
			"target":34963
		},
		{
			"buffer":0,
			"byteLength":24408,
			"byteOffset":3563556,
			"target":34962
		},
		{
			"buffer":0,
			"byteLength":24408,
			"byteOffset":3587964,
			"target":34962
		},
		{
			"buffer":0,
			"byteLength":16272,
			"byteOffset":3612372,
			"target":34962
		},
		{
			"buffer":0,
			"byteLength":11928,
			"byteOffset":3628644,
			"target":34963
		},
		{
			"buffer":0,
			"byteLength":6132,
			"byteOffset":3640572,
			"target":34962
		},
		{
			"buffer":0,
			"byteLength":6132,
			"byteOffset":3646704,
			"target":34962
		},
		{
			"buffer":0,
			"byteLength":4088,
			"byteOffset":3652836,
			"target":34962
		},
		{
			"buffer":0,
			"byteLength":3012,
			"byteOffset":3656924,
			"target":34963
		},
		{
			"buffer":0,
			"byteLength":2700,
			"byteOffset":3659936,
			"target":34962
		},
		{
			"buffer":0,
			"byteLength":2700,
			"byteOffset":3662636,
			"target":34962
		},
		{
			"buffer":0,
			"byteLength":1800,
			"byteOffset":3665336,
			"target":34962
		},
		{
			"buffer":0,
			"byteLength":2352,
			"byteOffset":3667136,
			"target":34963
		},
		{
			"buffer":0,
			"byteLength":6480,
			"byteOffset":3669488,
			"target":34962
		},
		{
			"buffer":0,
			"byteLength":6480,
			"byteOffset":3675968,
			"target":34962
		},
		{
			"buffer":0,
			"byteLength":4320,
			"byteOffset":3682448,
			"target":34962
		},
		{
			"buffer":0,
			"byteLength":3012,
			"byteOffset":3686768,
			"target":34963
		},
		{
			"buffer":0,
			"byteLength":2892,
			"byteOffset":3689780,
			"target":34962
		},
		{
			"buffer":0,
			"byteLength":2892,
			"byteOffset":3692672,
			"target":34962
		},
		{
			"buffer":0,
			"byteLength":1928,
			"byteOffset":3695564,
			"target":34962
		},
		{
			"buffer":0,
			"byteLength":2352,
			"byteOffset":3697492,
			"target":34963
		},
		{
			"buffer":0,
			"byteLength":6132,
			"byteOffset":3699844,
			"target":34962
		},
		{
			"buffer":0,
			"byteLength":6132,
			"byteOffset":3705976,
			"target":34962
		},
		{
			"buffer":0,
			"byteLength":4088,
			"byteOffset":3712108,
			"target":34962
		},
		{
			"buffer":0,
			"byteLength":2700,
			"byteOffset":3716196,
			"target":34962
		},
		{
			"buffer":0,
			"byteLength":2700,
			"byteOffset":3718896,
			"target":34962
		},
		{
			"buffer":0,
			"byteLength":1800,
			"byteOffset":3721596,
			"target":34962
		},
		{
			"buffer":0,
			"byteLength":8,
			"byteOffset":3723396
		},
		{
			"buffer":0,
			"byteLength":24,
			"byteOffset":3723404
		},
		{
			"buffer":0,
			"byteLength":1492,
			"byteOffset":3723428
		},
		{
			"buffer":0,
			"byteLength":5968,
			"byteOffset":3724920
		},
		{
			"buffer":0,
			"byteLength":24,
			"byteOffset":3730888
		},
		{
			"buffer":0,
			"byteLength":4,
			"byteOffset":3730912
		},
		{
			"buffer":0,
			"byteLength":12,
			"byteOffset":3730916
		},
		{
			"buffer":0,
			"byteLength":16,
			"byteOffset":3730928
		},
		{
			"buffer":0,
			"byteLength":12,
			"byteOffset":3730944
		},
		{
			"buffer":0,
			"byteLength":1140,
			"byteOffset":3730956
		},
		{
			"buffer":0,
			"byteLength":3420,
			"byteOffset":3732096
		},
		{
			"buffer":0,
			"byteLength":4560,
			"byteOffset":3735516
		},
		{
			"buffer":0,
			"byteLength":3420,
			"byteOffset":3740076
		},
		{
			"buffer":0,
			"byteLength":4560,
			"byteOffset":3743496
		},
		{
			"buffer":0,
			"byteLength":3420,
			"byteOffset":3748056
		},
		{
			"buffer":0,
			"byteLength":4560,
			"byteOffset":3751476
		}
	],
	"samplers":[
		{
			"magFilter":9728,
			"minFilter":9984,
			"wrapS":33648,
			"wrapT":33648
		},
		{
			"magFilter":9729,
			"minFilter":9987
		}
	],
	"buffers":[
		{
			"byteLength":3756036,
			"uri":"NexusHQ_SpaceStationFinal.bin"
		}
	]
}
